<?xml version="1.0" encoding="UTF-8" standalone="no"?>
<!-- Created with Inkscape (http://www.inkscape.org/) -->

<svg
   xmlns:dc="http://purl.org/dc/elements/1.1/"
   xmlns:cc="http://creativecommons.org/ns#"
   xmlns:rdf="http://www.w3.org/1999/02/22-rdf-syntax-ns#"
   xmlns:svg="http://www.w3.org/2000/svg"
   xmlns="http://www.w3.org/2000/svg"
   xmlns:sodipodi="http://sodipodi.sourceforge.net/DTD/sodipodi-0.dtd"
   xmlns:inkscape="http://www.inkscape.org/namespaces/inkscape"
   width="1200"
   height="600"
   viewBox="0 0 317.5 158.75"
   version="1.1"
   id="svg8"
   inkscape:version="0.92.4 (5da689c313, 2019-01-14)"
   sodipodi:docname="sticker-random.svg">
  <defs
     id="defs2" />
  <sodipodi:namedview
     id="base"
     pagecolor="#ffffff"
     bordercolor="#666666"
     borderopacity="1.0"
     inkscape:pageopacity="0.0"
     inkscape:pageshadow="2"
     inkscape:zoom="0.35"
     inkscape:cx="145.13872"
     inkscape:cy="262.47778"
     inkscape:document-units="mm"
     inkscape:current-layer="layer1"
     showgrid="false"
     inkscape:pagecheckerboard="true"
     units="px"
     inkscape:snap-page="true"
     inkscape:window-width="1366"
     inkscape:window-height="707"
     inkscape:window-x="0"
     inkscape:window-y="0"
     inkscape:window-maximized="1">
    <inkscape:grid
       type="xygrid"
       id="grid875" />
  </sodipodi:namedview>
  <metadata
     id="metadata5">
    <rdf:RDF>
      <cc:Work
         rdf:about="">
        <dc:format>image/svg+xml</dc:format>
        <dc:type
           rdf:resource="http://purl.org/dc/dcmitype/StillImage" />
        <dc:title />
      </cc:Work>
    </rdf:RDF>
  </metadata>
  <g
     inkscape:label="Layer 1"
     inkscape:groupmode="layer"
     id="layer1"
     transform="translate(0,-138.24996)">
    <path
       style="fill:#000000;stroke:none;stroke-width:0.26458332px;stroke-linecap:butt;stroke-linejoin:miter;stroke-opacity:1"
       d="m 0,138.24996 h 317.5 v 158.75 H 0 Z"
       id="path815"
       inkscape:connector-curvature="0" />
    <text
       xml:space="preserve"
       style="font-style:normal;font-weight:normal;font-size:10.58333302px;line-height:1.25;font-family:sans-serif;letter-spacing:0px;word-spacing:0px;fill:#000000;fill-opacity:1;stroke:none;stroke-width:0.26458332"
       x="49.892857"
       y="225.94043"
       id="text838"><tspan
         sodipodi:role="line"
         id="tspan836"
         x="49.892857"
         y="235.3042"
         style="stroke-width:0.26458332" /></text>
    <text
       id="text846"
       y="268.46808"
       x="102.18011"
       style="font-style:normal;font-weight:normal;font-size:42.75097275px;line-height:1.25;font-family:sans-serif;letter-spacing:0px;word-spacing:0px;fill:none;fill-opacity:1;stroke:#fbf180;stroke-width:1.06877434;stroke-opacity:1"
       xml:space="preserve"><tspan
         style="font-style:normal;font-variant:normal;font-weight:normal;font-stretch:normal;font-family:'Star Jedi';-inkscape-font-specification:'Star Jedi';fill:#fbf180;fill-opacity:1;stroke:none;stroke-width:1.06877434;stroke-opacity:1"
         y="306.29266"
         x="102.18011"
         id="tspan844"
         sodipodi:role="line" /></text>
    <g
       id="g888"
       transform="translate(5.733733,18.113179)">
      <text
         xml:space="preserve"
         style="font-style:normal;font-weight:normal;font-size:63.57888794px;line-height:1.25;font-family:sans-serif;letter-spacing:0px;word-spacing:0px;fill:none;fill-opacity:1;stroke:#8cd1d6;stroke-width:1.58947217;stroke-opacity:1"
         x="52.650276"
         y="261.1348"
         id="text869"><tspan
           sodipodi:role="line"
           id="tspan867"
           x="52.650276"
           y="261.1348"
           style="font-style:normal;font-variant:normal;font-weight:normal;font-stretch:normal;font-family:'Star Jedi';-inkscape-font-specification:'Star Jedi';letter-spacing:3.71709895px;fill:none;stroke:#8cd1d6;stroke-width:1.58947217;stroke-opacity:1">code</tspan></text>
      <g
         transform="matrix(1.0636173,0,0,1.0636173,-2.9243641,-38.287664)"
         id="text873"
         style="font-style:normal;font-weight:normal;font-size:47.39675903px;line-height:1.25;font-family:sans-serif;letter-spacing:0px;word-spacing:0px;fill:none;fill-opacity:1;stroke:#8cd1d6;stroke-width:1.184919;stroke-opacity:1"
         aria-label="The Rise Of open source ">
        <path
           inkscape:connector-curvature="0"
           id="path826"
           style="font-style:normal;font-variant:normal;font-weight:bold;font-stretch:normal;font-size:14.75354958px;font-family:'Bebas Neue';-inkscape-font-specification:'Bebas Neue';text-align:center;letter-spacing:3.96875px;text-anchor:middle;fill:#ffffff;fill-opacity:1;stroke:none;stroke-width:1.184919;stroke-opacity:1"
           d="m 47.664723,219.41896 h -1.696658 v -1.47536 h 5.016207 v 1.47536 h -1.696658 v 8.85213 h -1.622891 z" />
        <path
           inkscape:connector-curvature="0"
           id="path828"
           style="font-style:normal;font-variant:normal;font-weight:bold;font-stretch:normal;font-size:14.75354958px;font-family:'Bebas Neue';-inkscape-font-specification:'Bebas Neue';text-align:center;letter-spacing:3.96875px;text-anchor:middle;fill:#ffffff;fill-opacity:1;stroke:none;stroke-width:1.184919;stroke-opacity:1"
           d="m 55.724356,217.9436 h 1.62289 v 4.20476 h 1.740919 v -4.20476 h 1.62289 v 10.32749 h -1.62289 v -4.64737 h -1.740919 v 4.64737 h -1.62289 z" />
        <path
           inkscape:connector-curvature="0"
           id="path830"
           style="font-style:normal;font-variant:normal;font-weight:bold;font-stretch:normal;font-size:14.75354958px;font-family:'Bebas Neue';-inkscape-font-specification:'Bebas Neue';text-align:center;letter-spacing:3.96875px;text-anchor:middle;fill:#ffffff;fill-opacity:1;stroke:none;stroke-width:1.184919;stroke-opacity:1"
           d="m 65.888445,217.9436 h 4.426065 v 1.47536 h -2.803175 v 2.7294 h 2.227786 v 1.47536 h -2.227786 v 3.17201 h 2.803175 v 1.47536 h -4.426065 z" />
        <path
           inkscape:connector-curvature="0"
           id="path832"
           style="font-style:normal;font-variant:normal;font-weight:bold;font-stretch:normal;font-size:14.75354958px;font-family:'Bebas Neue';-inkscape-font-specification:'Bebas Neue';text-align:center;letter-spacing:3.96875px;text-anchor:middle;fill:#ffffff;fill-opacity:1;stroke:none;stroke-width:1.184919;stroke-opacity:1"
           d="m 81.548506,217.9436 h 2.404828 q 1.254052,0 1.829441,0.59014 0.575388,0.57539 0.575388,1.78518 v 0.63441 q 0,1.60813 -1.062256,2.03599 v 0.0295 q 0.590142,0.17705 0.826199,0.72293 0.250811,0.54588 0.250811,1.4606 v 1.81469 q 0,0.4426 0.02951,0.72292 0.02951,0.26556 0.147535,0.53113 h -1.652397 q -0.08852,-0.25081 -0.118029,-0.47212 -0.02951,-0.2213 -0.02951,-0.79669 v -1.88845 q 0,-0.70817 -0.236057,-0.98849 -0.221303,-0.28032 -0.781938,-0.28032 h -0.560635 v 4.42607 h -1.62289 z m 2.213032,4.42607 q 0.486867,0 0.722924,-0.25081 0.250811,-0.25081 0.250811,-0.84095 v -0.7967 q 0,-0.56063 -0.20655,-0.81144 -0.191796,-0.25081 -0.619649,-0.25081 h -0.737678 v 2.95071 z" />
        <path
           inkscape:connector-curvature="0"
           id="path834"
           style="font-style:normal;font-variant:normal;font-weight:bold;font-stretch:normal;font-size:14.75354958px;font-family:'Bebas Neue';-inkscape-font-specification:'Bebas Neue';text-align:center;letter-spacing:3.96875px;text-anchor:middle;fill:#ffffff;fill-opacity:1;stroke:none;stroke-width:1.184919;stroke-opacity:1"
           d="m 91.453253,217.9436 h 1.62289 v 10.32749 h -1.62289 z" />
        <path
           inkscape:connector-curvature="0"
           id="path836"
           style="font-style:normal;font-variant:normal;font-weight:bold;font-stretch:normal;font-size:14.75354958px;font-family:'Bebas Neue';-inkscape-font-specification:'Bebas Neue';text-align:center;letter-spacing:3.96875px;text-anchor:middle;fill:#ffffff;fill-opacity:1;stroke:none;stroke-width:1.184919;stroke-opacity:1"
           d="m 100.35568,228.41862 q -1.180282,0 -1.785178,-0.66391 -0.604895,-0.67866 -0.604895,-1.93271 v -0.59014 h 1.534369 v 0.70817 q 0,1.00324 0.840954,1.00324 0.4131,0 0.61965,-0.23606 0.2213,-0.25081 0.2213,-0.79669 0,-0.64916 -0.29507,-1.13602 -0.29507,-0.50162 -1.091763,-1.19504 -1.003242,-0.88521 -1.401587,-1.59338 -0.398346,-0.72293 -0.398346,-1.62289 0,-1.22455 0.619649,-1.88846 0.619649,-0.67866 1.799937,-0.67866 1.16553,0 1.75567,0.67866 0.60489,0.66391 0.60489,1.91796 v 0.42786 h -1.53437 v -0.53113 q 0,-0.53113 -0.20655,-0.76719 -0.20654,-0.25081 -0.60489,-0.25081 -0.811446,0 -0.811446,0.98849 0,0.56064 0.295071,1.0475 0.309825,0.48687 1.106515,1.18029 1.018,0.88521 1.40159,1.60813 0.38359,0.72293 0.38359,1.69666 0,1.26881 -0.6344,1.94747 -0.61965,0.67866 -1.81469,0.67866 z" />
        <path
           inkscape:connector-curvature="0"
           id="path838"
           style="font-style:normal;font-variant:normal;font-weight:bold;font-stretch:normal;font-size:14.75354958px;font-family:'Bebas Neue';-inkscape-font-specification:'Bebas Neue';text-align:center;letter-spacing:3.96875px;text-anchor:middle;fill:#ffffff;fill-opacity:1;stroke:none;stroke-width:1.184919;stroke-opacity:1"
           d="m 107.68963,217.9436 h 4.42606 v 1.47536 h -2.80317 v 2.7294 h 2.22778 v 1.47536 h -2.22778 v 3.17201 h 2.80317 v 1.47536 h -4.42606 z" />
        <path
           inkscape:connector-curvature="0"
           id="path840"
           style="font-style:normal;font-variant:normal;font-weight:bold;font-stretch:normal;font-size:14.75354958px;font-family:'Bebas Neue';-inkscape-font-specification:'Bebas Neue';text-align:center;letter-spacing:3.96875px;text-anchor:middle;fill:#ffffff;fill-opacity:1;stroke:none;stroke-width:1.184919;stroke-opacity:1"
           d="m 125.6955,228.41862 q -1.19504,0 -1.82944,-0.67866 -0.6344,-0.67866 -0.6344,-1.91796 v -5.42931 q 0,-1.2393 0.6344,-1.91796 0.6344,-0.67866 1.82944,-0.67866 1.19504,0 1.82944,0.67866 0.6344,0.67866 0.6344,1.91796 v 5.42931 q 0,1.2393 -0.6344,1.91796 -0.6344,0.67866 -1.82944,0.67866 z m 0,-1.47535 q 0.84095,0 0.84095,-1.018 v -5.63585 q 0,-1.018 -0.84095,-1.018 -0.84095,0 -0.84095,1.018 v 5.63585 q 0,1.018 0.84095,1.018 z" />
        <path
           inkscape:connector-curvature="0"
           id="path842"
           style="font-style:normal;font-variant:normal;font-weight:bold;font-stretch:normal;font-size:14.75354958px;font-family:'Bebas Neue';-inkscape-font-specification:'Bebas Neue';text-align:center;letter-spacing:3.96875px;text-anchor:middle;fill:#ffffff;fill-opacity:1;stroke:none;stroke-width:1.184919;stroke-opacity:1"
           d="m 133.22562,217.9436 h 4.29329 v 1.47536 h -2.6704 v 2.87694 h 2.09501 v 1.47536 h -2.09501 v 4.49983 h -1.62289 z" />
        <path
           inkscape:connector-curvature="0"
           id="path844"
           style="font-style:normal;font-variant:normal;font-weight:bold;font-stretch:normal;font-size:14.75354958px;font-family:'Bebas Neue';-inkscape-font-specification:'Bebas Neue';text-align:center;letter-spacing:3.96875px;text-anchor:middle;fill:#ffffff;fill-opacity:1;stroke:none;stroke-width:1.184919;stroke-opacity:1"
           d="m 150.94334,228.41862 q -1.19504,0 -1.82944,-0.67866 -0.6344,-0.67866 -0.6344,-1.91796 v -5.42931 q 0,-1.2393 0.6344,-1.91796 0.6344,-0.67866 1.82944,-0.67866 1.19504,0 1.82944,0.67866 0.6344,0.67866 0.6344,1.91796 v 5.42931 q 0,1.2393 -0.6344,1.91796 -0.6344,0.67866 -1.82944,0.67866 z m 0,-1.47535 q 0.84095,0 0.84095,-1.018 v -5.63585 q 0,-1.018 -0.84095,-1.018 -0.84095,0 -0.84095,1.018 v 5.63585 q 0,1.018 0.84095,1.018 z" />
        <path
           inkscape:connector-curvature="0"
           id="path846"
           style="font-style:normal;font-variant:normal;font-weight:bold;font-stretch:normal;font-size:14.75354958px;font-family:'Bebas Neue';-inkscape-font-specification:'Bebas Neue';text-align:center;letter-spacing:3.96875px;text-anchor:middle;fill:#ffffff;fill-opacity:1;stroke:none;stroke-width:1.184919;stroke-opacity:1"
           d="m 158.47346,217.9436 h 2.39007 q 1.20979,0 1.81469,0.64916 0.60489,0.64916 0.60489,1.90321 v 1.01799 q 0,1.25405 -0.60489,1.90321 -0.6049,0.64916 -1.81469,0.64916 h -0.76718 v 4.20476 h -1.62289 z m 2.39007,4.64737 q 0.39835,0 0.59014,-0.2213 0.20655,-0.22131 0.20655,-0.75243 v -1.22455 q 0,-0.53113 -0.20655,-0.75243 -0.19179,-0.2213 -0.59014,-0.2213 h -0.76718 v 3.17201 z" />
        <path
           inkscape:connector-curvature="0"
           id="path848"
           style="font-style:normal;font-variant:normal;font-weight:bold;font-stretch:normal;font-size:14.75354958px;font-family:'Bebas Neue';-inkscape-font-specification:'Bebas Neue';text-align:center;letter-spacing:3.96875px;text-anchor:middle;fill:#ffffff;fill-opacity:1;stroke:none;stroke-width:1.184919;stroke-opacity:1"
           d="m 168.14768,217.9436 h 4.42607 v 1.47536 h -2.80318 v 2.7294 h 2.22779 v 1.47536 h -2.22779 v 3.17201 h 2.80318 v 1.47536 h -4.42607 z" />
        <path
           inkscape:connector-curvature="0"
           id="path850"
           style="font-style:normal;font-variant:normal;font-weight:bold;font-stretch:normal;font-size:14.75354958px;font-family:'Bebas Neue';-inkscape-font-specification:'Bebas Neue';text-align:center;letter-spacing:3.96875px;text-anchor:middle;fill:#ffffff;fill-opacity:1;stroke:none;stroke-width:1.184919;stroke-opacity:1"
           d="m 177.47612,217.9436 h 2.03599 l 1.57863,6.18174 h 0.0295 v -6.18174 h 1.44585 v 10.32749 h -1.66715 l -1.94747,-7.53907 h -0.0295 v 7.53907 h -1.44585 z" />
        <path
           inkscape:connector-curvature="0"
           id="path852"
           style="font-style:normal;font-variant:normal;font-weight:bold;font-stretch:normal;font-size:14.75354958px;font-family:'Bebas Neue';-inkscape-font-specification:'Bebas Neue';text-align:center;letter-spacing:3.96875px;text-anchor:middle;fill:#ffffff;fill-opacity:1;stroke:none;stroke-width:1.184919;stroke-opacity:1"
           d="m 196.19685,228.41862 q -1.18028,0 -1.78518,-0.66391 -0.60489,-0.67866 -0.60489,-1.93271 v -0.59014 h 1.53437 v 0.70817 q 0,1.00324 0.84095,1.00324 0.4131,0 0.61965,-0.23606 0.2213,-0.25081 0.2213,-0.79669 0,-0.64916 -0.29507,-1.13602 -0.29507,-0.50162 -1.09176,-1.19504 -1.00324,-0.88521 -1.40159,-1.59338 -0.39835,-0.72293 -0.39835,-1.62289 0,-1.22455 0.61965,-1.88846 0.61965,-0.67866 1.79994,-0.67866 1.16553,0 1.75567,0.67866 0.60489,0.66391 0.60489,1.91796 v 0.42786 h -1.53436 v -0.53113 q 0,-0.53113 -0.20655,-0.76719 -0.20655,-0.25081 -0.6049,-0.25081 -0.81144,0 -0.81144,0.98849 0,0.56064 0.29507,1.0475 0.30982,0.48687 1.10651,1.18029 1.018,0.88521 1.40159,1.60813 0.38359,0.72293 0.38359,1.69666 0,1.26881 -0.6344,1.94747 -0.61965,0.67866 -1.81469,0.67866 z" />
        <path
           inkscape:connector-curvature="0"
           id="path854"
           style="font-style:normal;font-variant:normal;font-weight:bold;font-stretch:normal;font-size:14.75354958px;font-family:'Bebas Neue';-inkscape-font-specification:'Bebas Neue';text-align:center;letter-spacing:3.96875px;text-anchor:middle;fill:#ffffff;fill-opacity:1;stroke:none;stroke-width:1.184919;stroke-opacity:1"
           d="m 205.8766,228.41862 q -1.19503,0 -1.82944,-0.67866 -0.6344,-0.67866 -0.6344,-1.91796 v -5.42931 q 0,-1.2393 0.6344,-1.91796 0.63441,-0.67866 1.82944,-0.67866 1.19504,0 1.82944,0.67866 0.63441,0.67866 0.63441,1.91796 v 5.42931 q 0,1.2393 -0.63441,1.91796 -0.6344,0.67866 -1.82944,0.67866 z m 0,-1.47535 q 0.84096,0 0.84096,-1.018 v -5.63585 q 0,-1.018 -0.84096,-1.018 -0.84095,0 -0.84095,1.018 v 5.63585 q 0,1.018 0.84095,1.018 z" />
        <path
           inkscape:connector-curvature="0"
           id="path856"
           style="font-style:normal;font-variant:normal;font-weight:bold;font-stretch:normal;font-size:14.75354958px;font-family:'Bebas Neue';-inkscape-font-specification:'Bebas Neue';text-align:center;letter-spacing:3.96875px;text-anchor:middle;fill:#ffffff;fill-opacity:1;stroke:none;stroke-width:1.184919;stroke-opacity:1"
           d="m 215.76729,228.41862 q -1.18028,0 -1.79993,-0.66391 -0.61965,-0.67866 -0.61965,-1.93271 v -7.8784 h 1.62289 v 7.99643 q 0,0.53112 0.20655,0.76718 0.2213,0.23606 0.61965,0.23606 0.39834,0 0.60489,-0.23606 0.2213,-0.23606 0.2213,-0.76718 v -7.99643 h 1.56388 v 7.8784 q 0,1.25405 -0.61965,1.93271 -0.61965,0.66391 -1.79993,0.66391 z" />
        <path
           inkscape:connector-curvature="0"
           id="path858"
           style="font-style:normal;font-variant:normal;font-weight:bold;font-stretch:normal;font-size:14.75354958px;font-family:'Bebas Neue';-inkscape-font-specification:'Bebas Neue';text-align:center;letter-spacing:3.96875px;text-anchor:middle;fill:#ffffff;fill-opacity:1;stroke:none;stroke-width:1.184919;stroke-opacity:1"
           d="m 223.31148,217.9436 h 2.40482 q 1.25406,0 1.82944,0.59014 0.57539,0.57539 0.57539,1.78518 v 0.63441 q 0,1.60813 -1.06225,2.03599 v 0.0295 q 0.59014,0.17705 0.8262,0.72293 0.25081,0.54588 0.25081,1.4606 v 1.81469 q 0,0.4426 0.0295,0.72292 0.0295,0.26556 0.14754,0.53113 h -1.6524 q -0.0885,-0.25081 -0.11803,-0.47212 -0.0295,-0.2213 -0.0295,-0.79669 v -1.88845 q 0,-0.70817 -0.23606,-0.98849 -0.2213,-0.28032 -0.78194,-0.28032 h -0.56063 v 4.42607 h -1.62289 z m 2.21303,4.42607 q 0.48687,0 0.72292,-0.25081 0.25081,-0.25081 0.25081,-0.84095 v -0.7967 q 0,-0.56063 -0.20655,-0.81144 -0.19179,-0.25081 -0.61965,-0.25081 h -0.73767 v 2.95071 z" />
        <path
           inkscape:connector-curvature="0"
           id="path860"
           style="font-style:normal;font-variant:normal;font-weight:bold;font-stretch:normal;font-size:14.75354958px;font-family:'Bebas Neue';-inkscape-font-specification:'Bebas Neue';text-align:center;letter-spacing:3.96875px;text-anchor:middle;fill:#ffffff;fill-opacity:1;stroke:none;stroke-width:1.184919;stroke-opacity:1"
           d="m 235.50303,228.41862 q -1.16553,0 -1.78518,-0.66391 -0.60489,-0.66391 -0.60489,-1.8737 v -5.54733 q 0,-1.20979 0.60489,-1.8737 0.61965,-0.66391 1.78518,-0.66391 1.16553,0 1.77043,0.66391 0.61965,0.66391 0.61965,1.8737 v 1.09176 h -1.53437 v -1.19504 q 0,-0.95898 -0.81145,-0.95898 -0.81144,0 -0.81144,0.95898 v 5.76864 q 0,0.94423 0.81144,0.94423 0.81145,0 0.81145,-0.94423 v -1.57863 h 1.53437 v 1.4606 q 0,1.20979 -0.61965,1.8737 -0.6049,0.66391 -1.77043,0.66391 z" />
        <path
           inkscape:connector-curvature="0"
           id="path862"
           style="font-style:normal;font-variant:normal;font-weight:bold;font-stretch:normal;font-size:14.75354958px;font-family:'Bebas Neue';-inkscape-font-specification:'Bebas Neue';text-align:center;letter-spacing:3.96875px;text-anchor:middle;fill:#ffffff;fill-opacity:1;stroke:none;stroke-width:1.184919;stroke-opacity:1"
           d="m 242.83282,217.9436 h 4.42607 v 1.47536 h -2.80318 v 2.7294 h 2.22779 v 1.47536 h -2.22779 v 3.17201 h 2.80318 v 1.47536 h -4.42607 z" />
      </g>
      <path
         inkscape:connector-curvature="0"
         id="text879"
         d="m 82.887948,136.318 c -4.102337,0 -7.796998,0.51661 -11.076578,1.56011 -3.276483,1.02185 -6.071857,2.54352 -8.35729,4.57023 -2.287197,2.02827 -4.027658,4.54194 -5.207985,7.50349 -1.182892,2.94726 -1.765772,6.34093 -1.765772,10.16668 0,5.05282 1.017394,9.3904 3.086984,12.96907 l 0.0021,0.002 c 2.069207,3.55644 5.132073,6.26666 9.111379,8.08515 h 0.0021 l 0.0021,0.002 c 3.995783,1.7949 8.736417,2.67774 14.203031,2.67774 5.465819,0 10.205532,-0.88336 14.200952,-2.67774 4.022551,-1.79731 7.137611,-4.51634 9.269251,-8.11215 2.13304,-3.59815 3.18462,-7.93055 3.18462,-12.94623 0,-5.0146 -1.05137,-9.33909 -3.18462,-12.91713 l -0.002,-0.002 c -2.13126,-3.59395 -5.24485,-6.3215 -9.265107,-8.13917 -4.015703,-1.83624 -8.756307,-2.74213 -14.20303,-2.74213 z m 30.892682,0.34277 v 46.41692 h 0.79564 16.99918 v -14.80756 h 13.29729 l 0.0582,-0.008 c 3.83322,-0.57499 6.96591,-1.85589 9.33781,-3.87639 2.28881,-1.94973 3.75481,-3.68259 4.33549,-5.37626 0.51804,-1.51097 0.86134,-3.12497 1.03245,-4.83613 0.18514,-1.85143 -0.21968,-4.38437 -1.14256,-7.7403 l -0.009,-0.029 -0.0124,-0.0312 c -1.04618,-2.87698 -2.84536,-5.16966 -5.34302,-6.79094 -2.49231,-1.61783 -5.60377,-2.5788 -9.30042,-2.91872 l -0.0353,-0.002 z m 50.28292,0 v 46.41692 h 0.79564 43.01417 v -14.93842 h -27.62912 v -3.56478 h 15.39961 v -9.4126 h -15.39961 v -3.5627 h 23.84207 v -14.93842 z m 45.93913,0 v 46.41692 h 0.79356 15.38505 v -15.28743 l 12.17136,15.28743 h 15.76938 v -46.41692 h -16.18071 v 15.28534 l -12.17135,-15.28534 z m -127.114732,1.24849 c 5.272366,0 9.78123,0.87429 13.546578,2.59673 l 0.0021,0.002 c 3.760584,1.70026 6.588074,4.18616 8.554644,7.50349 v 0.002 c 1.9637,3.29269 2.96233,7.31053 2.96233,12.10488 0,4.79435 -0.9975,8.82163 -2.96233,12.13605 -1.96621,3.31673 -4.79125,5.79266 -8.55049,7.47232 h -0.0021 c -3.744616,1.68207 -8.255295,2.53856 -13.550733,2.53856 -5.293567,0 -9.802747,-0.85558 -13.54658,-2.53648 l -0.0041,-0.002 c -3.716488,-1.69935 -6.488934,-4.16421 -8.392606,-7.43493 l -0.0021,-0.002 c -1.903231,-3.29207 -2.870936,-7.33246 -2.870936,-12.17135 0,-3.66553 0.556226,-6.85362 1.649439,-9.57671 v -0.002 c 1.096261,-2.75061 2.687946,-5.03842 4.788355,-6.90105 2.101099,-1.86323 4.683806,-3.2791 7.779779,-4.24408 l 0.0021,-0.002 h 0.0021 c 3.094866,-0.98473 6.625424,-1.48325 10.594626,-1.48325 z m 32.481872,0.3407 h 28.33544 c 3.49514,0.32417 6.33929,1.2232 8.56086,2.66528 2.21634,1.43866 3.76399,3.40834 4.70526,5.98699 0.88715,3.23927 1.22749,5.66117 1.08232,7.11294 -0.16002,1.60025 -0.47815,3.09233 -0.95352,4.47883 -0.41274,1.20383 -1.68027,2.82403 -3.86184,4.68241 -2.09175,1.78185 -4.91238,2.95955 -8.5131,3.50453 h -14.73899 v 14.80755 h -14.61643 z m 50.285,0 h 36.8423 v 11.76003 h -23.84207 v 6.74317 h 15.39752 v 6.23214 h -15.39752 v 6.74316 h 27.62912 v 11.76003 h -40.62935 z m 45.93706,0 h 13.41362 l 14.52502,18.24353 v -18.24353 h 13.0023 v 43.23853 H 239.11921 L 224.5921,163.24497 v 18.24352 h -13.00022 z m -81.60563,9.5871 v 0.79355 9.05321 h 12.09449 c 0.79202,0 1.58482,-0.28299 2.37444,-0.7707 l 0.006,-0.004 0.006,-0.004 c 1.09886,-0.71103 1.43743,-2.13179 1.48117,-4.03427 v -0.0312 l -0.002,-0.0332 c -0.10978,-1.82226 -0.5431,-3.20776 -1.59335,-3.97194 -0.78814,-0.60587 -1.51405,-0.99714 -2.30382,-0.99714 z m -47.191785,0.86833 c -3.345888,0 -6.013967,0.96541 -7.788088,2.95196 -1.774122,1.98656 -2.598799,4.88498 -2.598799,8.58373 0,2.99493 0.673276,5.65606 2.037907,7.92312 l 0.0021,0.002 v 0.002 c 1.483564,2.42552 4.390499,3.57933 8.346902,3.57933 3.039609,0 5.41272,-0.56629 7.067238,-1.84264 1.57128,-1.1964 2.614503,-2.62856 3.016353,-4.25655 1.68e-4,-6.6e-4 0.0019,-10e-4 0.0021,-0.002 0.388464,-1.51322 0.640317,-3.29363 0.766553,-5.35549 l 0.0021,-0.0416 -0.0021,-0.0416 c -0.128774,-2.98325 -0.85183,-5.62532 -2.187479,-7.88158 l -0.0021,-0.002 c -1.450987,-2.47106 -4.467085,-3.6188 -8.662664,-3.6188 z m 48.780985,0.72086 h 10.47413 c 0.19868,0 0.69134,0.16793 1.34614,0.67307 l 0.0106,0.006 0.0106,0.009 c 0.42975,0.31037 0.83712,1.17291 0.93897,2.75252 -0.0445,1.66703 -0.44214,2.4979 -0.74785,2.69852 -0.61106,0.37478 -1.12181,0.52973 -1.52688,0.52973 h -10.50529 z m -48.780985,0.86834 c 3.9159,0 6.219137,1.00363 7.293673,2.83562 v 0.002 0.002 c 1.182333,1.9964 1.840748,4.35153 1.965199,7.10255 -0.122955,1.9691 -0.36212,3.65228 -0.714618,5.0231 l -0.0021,0.004 v 0.002 c -0.301878,1.22527 -1.079057,2.34045 -2.442996,3.37781 h -0.0021 l -0.0021,0.002 c -1.242957,0.95885 -3.256899,1.51025 -6.095026,1.51025 -3.65648,0 -5.861111,-0.97809 -6.98622,-2.81276 -1.201705,-1.99638 -1.811474,-4.34395 -1.811474,-7.10255 0,-3.46216 0.772339,-5.93245 2.195789,-7.52635 1.423449,-1.5939 3.552651,-2.42015 6.601905,-2.42015 z"
         style="color:#000000;font-style:normal;font-variant:normal;font-weight:normal;font-stretch:normal;font-size:59.77609253px;line-height:1.25;font-family:sans-serif;font-variant-ligatures:normal;font-variant-position:normal;font-variant-caps:normal;font-variant-numeric:normal;font-variant-alternates:normal;font-feature-settings:normal;text-indent:0;text-align:start;text-decoration:none;text-decoration-line:none;text-decoration-style:solid;text-decoration-color:#000000;letter-spacing:0px;word-spacing:0px;text-transform:none;writing-mode:lr-tb;direction:ltr;text-orientation:mixed;dominant-baseline:auto;baseline-shift:baseline;text-anchor:start;white-space:normal;shape-padding:0;clip-rule:nonzero;display:inline;overflow:visible;visibility:visible;opacity:1;isolation:auto;mix-blend-mode:normal;color-interpolation:sRGB;color-interpolation-filters:linearRGB;solid-color:#000000;solid-opacity:1;vector-effect:none;fill:#8cd1d6;fill-opacity:1;fill-rule:nonzero;stroke:none;stroke-width:1.58947217;stroke-linecap:butt;stroke-linejoin:miter;stroke-miterlimit:4;stroke-dasharray:none;stroke-dashoffset:0;stroke-opacity:1;color-rendering:auto;image-rendering:auto;shape-rendering:auto;text-rendering:auto;enable-background:accumulate" />
    </g>
  </g>
</svg>
